# xmcd
#
# Track frame offsets:
# 150
# 18427
# 37690
# 55718
# 76371
# 95625
# 113443
# 131224
# 147982
# 167848
# 185277
# 199501
# 216532
# 231530
# 239744
# 255439
# 267413
# 303519
# 314796
# 333128
# 350219
#
# Disc length: 4779 seconds
#
#
# Revision: 0
# Processed by: cddbd v1.4PL0 Copyright (c) Steve Scherf et al.
# Submitted via: FreeRIP 2.30 
#
DISCID=3c12a915
DTITLE=Janis Joplin - Greatest Hits '2000
DYEAR=2000
DGENRE=Blues
TTITLE0=Summertime
TTITLE1=Place of my heart
TTITLE2=Cry baby
TTITLE3=me and Bobby McGee
TTITLE4=Misery ''n
TTITLE5=Half moon
TTITLE6=Try
TTITLE7=Move over
TTITLE8=Kozmik blues
TTITLE9=Little girls blue
TTITLE10=Down on me
TTITLE11=My Baby
TTITLE12=Trust me
TTITLE13=Mercedes Benz
TTITLE14=Get in while you can
TTITLE15=Bye, Bye Baby
TTITLE16=Ball and Chain
TTITLE17=Burled alive in the blues
TTITLE18=Maybe
TTITLE19=Rase your hand
TTITLE20=san Francisco bayblues
EXTD=
EXTT0=
EXTT1=
EXTT2=
EXTT3=
EXTT4=
EXTT5=
EXTT6=
EXTT7=
EXTT8=
EXTT9=
EXTT10=
EXTT11=
EXTT12=
EXTT13=
EXTT14=
EXTT15=
EXTT16=
EXTT17=
EXTT18=
EXTT19=
EXTT20=
PLAYORDER=
